<svg width="78" height="78" viewBox="0 0 78 78" fill="none" xmlns="http://www.w3.org/2000/svg">
<path d="M77.3333 38.9396C77.3316 38.4882 77.168 38.0524 76.8723 37.7115C76.5766 37.3705 76.1685 37.147 75.7221 37.0816C75.2181 27.9115 71.3505 19.2499 64.86 12.7559C58.3695 6.2619 49.7125 2.39215 40.5474 1.88793C40.481 1.44085 40.2563 1.03252 39.9142 0.737343C39.5721 0.442165 39.1353 0.279785 38.6836 0.279785C38.2318 0.279785 37.7951 0.442165 37.453 0.737343C37.1109 1.03252 36.8861 1.44085 36.8197 1.88793C27.6546 2.39215 18.9977 6.2619 12.5072 12.7559C6.01668 19.2499 2.14903 27.9115 1.64509 37.0816C1.19135 37.1367 0.773484 37.3562 0.470403 37.6985C0.167321 38.0408 0 38.4823 0 38.9396C0 39.3969 0.167321 39.8384 0.470403 40.1807C0.773484 40.5231 1.19135 40.7425 1.64509 40.7977C2.14874 49.9691 6.0159 58.6324 12.5061 65.1286C18.9963 71.6249 27.6534 75.4975 36.8197 76.005C36.8861 76.452 37.1109 76.8604 37.453 77.1556C37.7951 77.4507 38.2318 77.6131 38.6836 77.6131C39.1353 77.6131 39.5721 77.4507 39.9142 77.1556C40.2563 76.8604 40.481 76.452 40.5474 76.005C49.7137 75.4975 58.3708 71.6249 64.861 65.1286C71.3512 58.6324 75.2184 49.9691 75.7221 40.7977C76.1685 40.7322 76.5766 40.5087 76.8723 40.1678C77.168 39.8268 77.3316 39.391 77.3333 38.9396ZM38.6904 0.945245C38.9341 0.94526 39.1722 1.01773 39.3746 1.15345C39.577 1.28918 39.7344 1.48203 39.827 1.7075C39.9196 1.93298 39.9432 2.1809 39.8946 2.41979C39.8461 2.65867 39.7277 2.87773 39.5544 3.04913C39.3812 3.22054 39.161 3.33655 38.9217 3.38244C38.6824 3.42833 38.4349 3.40202 38.2106 3.30686C37.9863 3.2117 37.7953 3.05197 37.6619 2.84798C37.5286 2.64399 37.4588 2.40493 37.4615 2.16117C37.4614 2.00034 37.4933 1.8411 37.5553 1.69268C37.6172 1.54426 37.7079 1.4096 37.8222 1.29651C37.9365 1.18343 38.0721 1.09415 38.2212 1.03385C38.3702 0.973555 38.5297 0.943438 38.6904 0.945245ZM0.702906 38.9396C0.702906 38.6964 0.774975 38.4587 0.910011 38.2565C1.04505 38.0543 1.23699 37.8967 1.46155 37.8036C1.6861 37.7106 1.93319 37.6862 2.17158 37.7337C2.40997 37.7811 2.62894 37.8982 2.80081 38.0702C2.97268 38.2421 3.08972 38.4612 3.13714 38.6997C3.18456 38.9383 3.16023 39.1855 3.06721 39.4102C2.9742 39.6348 2.81668 39.8269 2.61458 39.962C2.41249 40.0971 2.17488 40.1692 1.93182 40.1692C1.76993 40.171 1.60931 40.1405 1.45938 40.0793C1.30945 40.0182 1.17326 39.9277 1.05878 39.8131C0.944293 39.6986 0.853839 39.5623 0.792728 39.4123C0.731616 39.2623 0.701077 39.1016 0.702906 38.9396ZM38.6904 76.9477C38.4468 76.9504 38.2079 76.8806 38.004 76.7471C37.8001 76.6136 37.6405 76.4226 37.5453 76.1982C37.4502 75.9737 37.4239 75.7261 37.4698 75.4867C37.5157 75.2473 37.6316 75.0269 37.8029 74.8536C37.9742 74.6802 38.1932 74.5618 38.4319 74.5132C38.6707 74.4646 38.9185 74.4882 39.1438 74.5808C39.3692 74.6735 39.5619 74.831 39.6976 75.0335C39.8332 75.236 39.9057 75.4743 39.9057 75.7181C39.9057 76.0418 39.7781 76.3525 39.5506 76.5827C39.3231 76.8129 39.014 76.9441 38.6904 76.9477ZM40.5338 75.3355C40.4508 74.9054 40.2208 74.5176 39.8832 74.2388C39.5455 73.9599 39.1214 73.8074 38.6836 73.8074C38.2458 73.8074 37.8216 73.9599 37.484 74.2388C37.1464 74.5176 36.9163 74.9054 36.8334 75.3355C27.8409 74.8352 19.3484 71.0358 12.98 64.6639C6.61161 58.292 2.81424 49.7949 2.31416 40.7977C2.74403 40.7147 3.13161 40.4845 3.41031 40.1467C3.68902 39.8089 3.84146 39.3845 3.84146 38.9464C3.84146 38.5084 3.68902 38.084 3.41031 37.7462C3.13161 37.4084 2.74403 37.1782 2.31416 37.0952C2.81128 28.0969 6.6077 19.5982 12.9767 13.2257C19.3457 6.85324 27.8399 3.05477 36.8334 2.55738C36.9163 2.98748 37.1464 3.37526 37.484 3.65412C37.8216 3.93298 38.2458 4.0855 38.6836 4.0855C39.1214 4.0855 39.5455 3.93298 39.8832 3.65412C40.2208 3.37526 40.4508 2.98748 40.5338 2.55738C49.5262 3.05773 58.0187 6.85715 64.3871 13.229C70.7555 19.6009 74.5529 28.098 75.053 37.0952C74.6231 37.1782 74.2356 37.4084 73.9569 37.7462C73.6782 38.084 73.5257 38.5084 73.5257 38.9464C73.5257 39.3845 73.6782 39.8089 73.9569 40.1467C74.2356 40.4845 74.6231 40.7147 75.053 40.7977C74.5529 49.7949 70.7555 58.292 64.3871 64.6639C58.0187 71.0358 49.5262 74.8352 40.5338 75.3355ZM75.449 40.1692C75.2054 40.1719 74.9664 40.1021 74.7625 39.9687C74.5586 39.8352 74.399 39.6441 74.3039 39.4197C74.2088 39.1953 74.1825 38.9476 74.2284 38.7082C74.2743 38.4688 74.3902 38.2484 74.5615 38.0751C74.7328 37.9018 74.9517 37.7833 75.1905 37.7347C75.4292 37.6862 75.677 37.7097 75.9024 37.8024C76.1277 37.895 76.3205 38.0526 76.4562 38.2551C76.5918 38.4576 76.6642 38.6958 76.6643 38.9396C76.6643 39.2634 76.5367 39.5741 76.3091 39.8043C76.0816 40.0345 75.7725 40.1656 75.449 40.1692Z" fill="#091F2C"/>
</svg>
