<svg width="20" height="21" viewBox="0 0 20 21" fill="none" xmlns="http://www.w3.org/2000/svg">
<path d="M4.6875 6.125C5.20527 6.125 5.625 5.70527 5.625 5.1875C5.625 4.66973 5.20527 4.25 4.6875 4.25C4.16973 4.25 3.75 4.66973 3.75 5.1875C3.75 5.70527 4.16973 6.125 4.6875 6.125Z" fill="#263238"/>
<path d="M10 6.125C10.5178 6.125 10.9375 5.70527 10.9375 5.1875C10.9375 4.66973 10.5178 4.25 10 4.25C9.48223 4.25 9.0625 4.66973 9.0625 5.1875C9.0625 5.70527 9.48223 6.125 10 6.125Z" fill="#263238"/>
<path d="M15.3125 6.125C15.8303 6.125 16.25 5.70527 16.25 5.1875C16.25 4.66973 15.8303 4.25 15.3125 4.25C14.7947 4.25 14.375 4.66973 14.375 5.1875C14.375 5.70527 14.7947 6.125 15.3125 6.125Z" fill="#263238"/>
<path d="M4.6875 11.4375C5.20527 11.4375 5.625 11.0178 5.625 10.5C5.625 9.98223 5.20527 9.5625 4.6875 9.5625C4.16973 9.5625 3.75 9.98223 3.75 10.5C3.75 11.0178 4.16973 11.4375 4.6875 11.4375Z" fill="#263238"/>
<path d="M10 11.4375C10.5178 11.4375 10.9375 11.0178 10.9375 10.5C10.9375 9.98223 10.5178 9.5625 10 9.5625C9.48223 9.5625 9.0625 9.98223 9.0625 10.5C9.0625 11.0178 9.48223 11.4375 10 11.4375Z" fill="#263238"/>
<path d="M15.3125 11.4375C15.8303 11.4375 16.25 11.0178 16.25 10.5C16.25 9.98223 15.8303 9.5625 15.3125 9.5625C14.7947 9.5625 14.375 9.98223 14.375 10.5C14.375 11.0178 14.7947 11.4375 15.3125 11.4375Z" fill="#263238"/>
<path d="M4.6875 16.75C5.20527 16.75 5.625 16.3303 5.625 15.8125C5.625 15.2947 5.20527 14.875 4.6875 14.875C4.16973 14.875 3.75 15.2947 3.75 15.8125C3.75 16.3303 4.16973 16.75 4.6875 16.75Z" fill="#263238"/>
<path d="M10 16.75C10.5178 16.75 10.9375 16.3303 10.9375 15.8125C10.9375 15.2947 10.5178 14.875 10 14.875C9.48223 14.875 9.0625 15.2947 9.0625 15.8125C9.0625 16.3303 9.48223 16.75 10 16.75Z" fill="#263238"/>
<path d="M15.3125 16.75C15.8303 16.75 16.25 16.3303 16.25 15.8125C16.25 15.2947 15.8303 14.875 15.3125 14.875C14.7947 14.875 14.375 15.2947 14.375 15.8125C14.375 16.3303 14.7947 16.75 15.3125 16.75Z" fill="#263238"/>
</svg>
