<svg width="20" height="20" viewBox="0 0 20 20" fill="none" xmlns="http://www.w3.org/2000/svg">
<path d="M16.875 8.75V5" stroke="#263238" stroke-width="1.5" stroke-linecap="round" stroke-linejoin="round"/>
<path d="M18.75 6.875H15" stroke="#263238" stroke-width="1.5" stroke-linecap="round" stroke-linejoin="round"/>
<path d="M13.125 1.875V4.375" stroke="#263238" stroke-width="1.5" stroke-linecap="round" stroke-linejoin="round"/>
<path d="M14.375 3.125H11.875" stroke="#263238" stroke-width="1.5" stroke-linecap="round" stroke-linejoin="round"/>
<path d="M16.9267 11.9257C15.6999 12.2666 14.4045 12.2756 13.173 11.9517C11.9415 11.6278 10.8181 10.9827 9.91768 10.0823C9.01727 9.1819 8.37214 8.05852 8.04825 6.82703C7.72436 5.59554 7.73333 4.30013 8.07425 3.07324L8.07445 3.0733C6.86435 3.40994 5.76357 4.05777 4.88178 4.95226C3.99999 5.84675 3.36796 6.95668 3.04865 8.17147C2.72935 9.38626 2.73392 10.6635 3.0619 11.876C3.38989 13.0885 4.02984 14.1938 4.91801 15.082C5.80618 15.9702 6.91156 16.6101 8.12404 16.9381C9.33652 17.266 10.6138 17.2706 11.8286 16.9513C13.0433 16.632 14.1533 15.9999 15.0477 15.1181C15.9422 14.2363 16.5901 13.1356 16.9267 11.9254L16.9267 11.9257Z" stroke="#263238" stroke-width="1.5" stroke-linecap="round" stroke-linejoin="round"/>
</svg>
